Coordinates
version=1
nRows=13
nColumns=40
inDegrees=yes

Units are S.I. units (second, meters, Newtons, ...)
Angles are in degrees.

endheader
time	pelvis_tilt	pelvis_list	pelvis_rotation	pelvis_tx	pelvis_ty	pelvis_tz	hip_flexion_r	hip_adduction_r	hip_rotation_r	knee_angle_r	knee_angle_r_beta	ankle_angle_r	subtalar_angle_r	mtp_angle_r	hip_flexion_l	hip_adduction_l	hip_rotation_l	knee_angle_l	knee_angle_l_beta	ankle_angle_l	subtalar_angle_l	mtp_angle_l	lumbar_extension	lumbar_bending	lumbar_rotation	arm_flex_r	arm_add_r	arm_rot_r	elbow_flex_r	pro_sup_r	wrist_flex_r	wrist_dev_r	arm_flex_l	arm_add_l	arm_rot_l	elbow_flex_l	pro_sup_l	wrist_flex_l	wrist_dev_l
      7.55500000	     -2.94815780	     -2.76139702	     -5.24425494	      1.03604566	      0.93043003	      0.44314603	     23.90910814	     -3.64139985	     -8.31441784	     22.46273919	     22.46273919	      5.56942177	      0.18721123	      1.52365148	      0.11423551	     -3.35866030	    -16.31310503	     13.36809462	     13.36809462	     18.07627881	      1.00158342	     -2.80517004	     -9.77924093	      0.83521182	      0.43813231	    -13.14630857	    -13.19105967	     -7.60385283	     28.66483341	     46.91282442	      0.00000000	      0.00000000	     14.62879099	    -15.59473494	     -3.90627204	     61.22364926	     46.64572993	      0.00000000	      0.00000000
      7.56835714	     -3.07105714	     -2.53149242	     -5.15378436	      1.03629026	      0.92916212	      0.44513628	     23.86459849	     -3.61784099	     -8.28441660	     22.05847271	     22.05847271	      5.71507820	      0.30640589	      1.55609121	     -0.17208150	     -3.22961059	    -16.25764681	     13.30262307	     13.30262307	     18.35251049	      1.13248371	     -2.93374484	     -9.50964591	      0.56975830	      0.37478926	    -12.84327657	    -12.98212424	     -7.56516688	     28.85729806	     46.90192094	      0.00000000	      0.00000000	     15.09157234	    -15.55148294	     -4.02940045	     61.47994560	     46.66380111	      0.00000000	      0.00000000
      7.58171429	     -2.93456960	     -2.40689370	     -5.06606733	      1.03693637	      0.92852588	      0.44727855	     23.32109835	     -3.54482455	     -8.46756527	     21.53200818	     21.53200818	      5.78449428	      0.65665509	      1.52473567	     -0.98576295	     -3.16443469	    -16.44589212	     12.83801537	     12.83801537	     18.51201868	      1.72861766	     -3.00878290	     -9.55968403	      0.39690060	      0.40875270	    -12.64797848	    -12.81639665	     -7.45859751	     29.43572916	     46.85861020	      0.00000000	      0.00000000	     15.32668399	    -15.22262650	     -4.85592815	     62.14221533	     46.74608026	      0.00000000	      0.00000000
      7.59507143	     -2.99819320	     -2.25959635	     -4.88069757	      1.03740668	      0.92745926	      0.44939608	     23.18866427	     -3.53564211	     -8.52610626	     21.54707486	     21.54707486	      5.95032984	      0.53580631	      1.41033064	     -1.31692260	     -3.15439007	    -16.32971512	     12.83016885	     12.83016885	     18.75279016	      1.87344133	     -3.11311675	     -9.36317328	      0.23297499	      0.34829536	    -12.19503439	    -12.64779557	     -7.38489398	     29.78913627	     46.83817179	      0.00000000	      0.00000000	     15.64303001	    -15.05565570	     -5.07503364	     62.39530648	     46.77094575	      0.00000000	      0.00000000
      7.60842857	     -2.98454894	     -2.20799112	     -4.67359040	      1.03801807	      0.92662447	      0.45163021	     22.88506823	     -3.41197195	     -8.42511038	     21.55895924	     21.55895924	      5.80850223	      0.02805698	      0.35598428	     -1.72721393	     -3.29243971	    -16.39308195	     12.88352290	     12.88352290	     19.09110715	      2.36323583	     -3.10377175	     -9.32889590	      0.19868660	     -0.09512223	    -11.95883976	    -12.77617398	     -6.52251825	     31.72379333	     46.65399380	      0.00000000	      0.00000000	     15.27107545	    -14.42111728	     -7.59512154	     63.56964124	     46.99879329	      0.00000000	      0.00000000
      7.62178571	     -2.98621125	     -2.17395710	     -4.41204295	      1.03869194	      0.92593156	      0.45396073	     22.66297824	     -3.34295837	     -8.49800875	     21.87244200	     21.87244200	      6.06551689	     -0.27670038	      0.18015749	     -2.10638994	     -3.43416810	    -16.19049556	     12.92789662	     12.92789662	     19.26347269	      2.43189675	     -3.14011456	     -9.20453016	      0.15590123	     -0.09610196	    -11.33619138	    -12.68428313	     -6.41794716	     32.00541655	     46.63752749	      0.00000000	      0.00000000	     15.51006715	    -14.22156684	     -7.55718634	     63.65358349	     46.99995051	      0.00000000	      0.00000000
      7.63514286	     -2.97587726	     -2.16902977	     -4.14747374	      1.03935689	      0.92541467	      0.45632000	     22.42099514	     -3.25206065	     -8.49064808	     22.25613892	     22.25613892	      6.36316718	     -0.66623859	     -0.01966539	     -2.45429965	     -3.62449014	    -15.93483338	     13.04948362	     13.04948362	     19.42278872	      2.48738401	     -3.16958072	     -9.11898281	      0.23910867	     -0.06651893	    -10.63306978	    -12.62477481	     -6.33494269	     32.36470650	     46.62048998	      0.00000000	      0.00000000	     15.65212585	    -13.98573333	     -7.53360098	     63.71022613	     47.00081137	      0.00000000	      0.00000000
      7.64850000	     -2.99016835	     -2.19447941	     -3.85086502	      1.03997257	      0.92496542	      0.45895486	     22.27214935	     -3.00967786	     -8.02943031	     22.79587027	     22.79587027	      6.55168211	     -2.05445141	     -0.37700536	     -2.56376901	     -3.94958742	    -15.70214846	     13.57772399	     13.57772399	     19.66159313	      2.45938893	     -3.03884954	     -9.05203131	      0.31276011	     -0.30940840	     -9.89372324	    -12.69303248	     -5.99561142	     33.37862019	     46.55033441	      0.00000000	      0.00000000	     15.50869977	    -13.94052732	     -7.94363739	     63.74529804	     47.03620517	      0.00000000	      0.00000000
      7.66185714	     -2.93647794	     -2.27898666	     -3.55629899	      1.04082485	      0.92493025	      0.46163712	     21.89923248	     -2.82430646	     -8.11835578	     23.15296972	     23.15296972	      6.87208163	     -2.42725140	     -0.56577293	     -2.87516725	     -4.30166025	    -15.44639879	     13.86772585	     13.86772585	     19.76863224	      2.44362855	     -3.03800262	     -9.00885965	      0.44662683	     -0.19504878	     -9.06950858	    -12.70377147	     -5.91440717	     33.84295758	     46.53015775	      0.00000000	      0.00000000	     15.50526202	    -13.58766658	     -7.90596951	     63.77664995	     47.03452186	      0.00000000	      0.00000000
      7.67521429	     -2.95744516	     -2.46016194	     -3.20909400	      1.04148660	      0.92492908	      0.46455807	     21.58054183	     -2.41206243	     -7.85949469	     23.43356349	     23.43356349	      7.05034072	     -3.61446948	     -0.70775913	     -2.70969027	     -4.92193365	    -15.17203758	     14.90894746	     14.90894746	     20.04416573	      2.31338230	     -2.91851368	     -8.93930928	      0.70664768	     -0.46559595	     -8.22378917	    -12.82337303	     -5.62339025	     35.10669291	     46.45576342	      0.00000000	      0.00000000	     15.19085744	    -13.54364616	     -8.27015267	     63.72930427	     47.06373707	      0.00000000	      0.00000000
      7.68857143	     -2.87949585	     -2.63605117	     -2.89736168	      1.04232709	      0.92532337	      0.46760932	     21.06038630	     -2.03242331	     -7.80107577	     23.55603538	     23.55603538	      7.20694306	     -4.38045211	     -1.02911883	     -2.68396140	     -5.57737964	    -15.19240718	     15.94991177	     15.94991177	     20.61062900	      2.76724822	     -1.97550121	     -8.99277225	      0.94835013	     -0.54265598	     -7.80824995	    -13.29973409	     -4.05617427	     37.57079734	     46.21984040	      0.00000000	      0.00000000	     14.75293528	    -13.16066555	     -9.11499835	     64.05756234	     47.14971402	      0.00000000	      0.00000000
      7.70192857	     -2.79593760	     -2.76533702	     -2.57296421	      1.04312877	      0.92595414	      0.47075861	     20.50113382	     -1.73791388	     -7.94476048	     23.61692731	     23.61692731	      7.50269128	     -4.73333277	     -1.04570380	     -2.62495678	     -6.13014581	    -14.78189687	     16.93347998	     16.93347998	     20.52164313	      2.40795200	     -2.08420879	     -9.01842368	      1.08022693	     -0.54364400	     -6.69359774	    -13.36589987	     -4.02564222	     38.14991131	     46.19882663	      0.00000000	      0.00000000	     14.50257155	    -13.04379465	     -8.97568618	     63.78111254	     47.13533494	      0.00000000	      0.00000000
      7.71528571	     -2.76420933	     -2.91914057	     -2.21190433	      1.04382870	      0.92668792	      0.47390021	     19.89750245	     -1.39899511	     -8.13390952	     23.46290945	     23.46290945	      7.75241588	     -5.05622418	     -0.97344060	     -2.29668494	     -6.77218609	    -14.30391407	     18.27655692	     18.27655692	     20.36413929	      1.98152182	     -2.29052483	     -8.98475900	      1.33576137	     -0.62680389	     -5.50345713	    -13.43039807	     -4.02846419	     38.97530869	     46.16963952	      0.00000000	      0.00000000	     14.10160130	    -12.98307848	     -8.85516780	     63.42344982	     47.12072148	      0.00000000	      0.00000000
